<?xml version="1.0" encoding="utf-8"?>
<!-- Generator: Adobe Illustrator 28.3.0, SVG Export Plug-In . SVG Version: 6.00 Build 0)  -->
<svg version="1.1" id="Layer_1" xmlns="http://www.w3.org/2000/svg" xmlns:xlink="http://www.w3.org/1999/xlink" x="0px" y="0px"
	 viewBox="0 0 640 640" style="enable-background:new 0 0 640 640;" xml:space="preserve">
<style type="text/css">
	.st0{fill:#19457F;}
</style>
<path class="st0" d="M144,288c0-97.2,78.8-176,176-176s176,78.8,176,176v44.8c-14.1-8.2-30.5-12.8-48-12.8h-16
	c-26.5,0-48,21.5-48,48v128c0,26.5,21.5,48,48,48h16c53,0,96-43,96-96V288c0-123.7-100.3-224-224-224S96,164.3,96,288v160
	c0,53,43,96,96,96h16c26.5,0,48-21.5,48-48V368c0-26.5-21.5-48-48-48h-16c-17.5,0-33.9,4.7-48,12.8V288z M144,416
	c0-26.5,21.5-48,48-48h16v128h-16c-26.5,0-48-21.5-48-48V416z M496,416v32c0,26.5-21.5,48-48,48h-16V368h16
	C474.5,368,496,389.5,496,416z"/>
</svg>
