<?xml version="1.0" encoding="utf-8"?>
<!-- Generator: Adobe Illustrator 28.3.0, SVG Export Plug-In . SVG Version: 6.00 Build 0)  -->
<svg version="1.1" id="Layer_1" xmlns="http://www.w3.org/2000/svg" xmlns:xlink="http://www.w3.org/1999/xlink" x="0px" y="0px"
	 viewBox="0 0 640 640" style="enable-background:new 0 0 640 640;" xml:space="preserve">
<style type="text/css">
	.st0{fill:#19457F;}
</style>
<path class="st0" d="M480,576H192c-53,0-96-43-96-96V160c0-53,43-96,96-96h304c26.5,0,48,21.5,48,48v288c0,20.9-13.4,38.7-32,45.3
	V512c17.7,0,32,14.3,32,32s-14.3,32-32,32H480z M192,448c-17.7,0-32,14.3-32,32s14.3,32,32,32h256v-64H192z M224,216
	c0,13.3,10.7,24,24,24h176c13.3,0,24-10.7,24-24s-10.7-24-24-24H248C234.7,192,224,202.7,224,216z M248,288c-13.3,0-24,10.7-24,24
	s10.7,24,24,24h176c13.3,0,24-10.7,24-24s-10.7-24-24-24H248z"/>
</svg>
