<?xml version="1.0" encoding="utf-8"?>
<!-- Generator: Adobe Illustrator 28.3.0, SVG Export Plug-In . SVG Version: 6.00 Build 0)  -->
<svg version="1.1" id="Layer_1" xmlns="http://www.w3.org/2000/svg" xmlns:xlink="http://www.w3.org/1999/xlink" x="0px" y="0px"
	 viewBox="0 0 640 640" style="enable-background:new 0 0 640 640;" xml:space="preserve">
<style type="text/css">
	.st0{fill:#19457F;}
</style>
<path class="st0" d="M512,160v256H128V160H512z M128,96c-35.3,0-64,28.7-64,64v256c0,35.3,28.7,64,64,64h144l-16,48h-72
	c-13.3,0-24,10.7-24,24s10.7,24,24,24h272c13.3,0,24-10.7,24-24s-10.7-24-24-24h-72l-16-48h144c35.3,0,64-28.7,64-64V160
	c0-35.3-28.7-64-64-64H128z"/>
</svg>
