<?xml version="1.0" encoding="utf-8"?>
<!-- Generator: Adobe Illustrator 28.3.0, SVG Export Plug-In . SVG Version: 6.00 Build 0)  -->
<svg version="1.1" id="Layer_1" xmlns="http://www.w3.org/2000/svg" xmlns:xlink="http://www.w3.org/1999/xlink" x="0px" y="0px"
	 viewBox="0 0 640 640" style="enable-background:new 0 0 640 640;" xml:space="preserve">
<style type="text/css">
	.st0{fill:#19457F;}
</style>
<path class="st0" d="M125.4,128C91.5,128,64,155.5,64,189.4c0,0.9,0,1.7,0.1,2.6H64v256c0,35.3,28.7,64,64,64h384
	c35.3,0,64-28.7,64-64V192h-0.1c0-0.9,0.1-1.7,0.1-2.6c0-33.9-27.5-61.4-61.4-61.4H125.4z M528,256.3V448c0,8.8-7.2,16-16,16H128
	c-8.8,0-16-7.2-16-16V256.3l154.8,117.4c31.4,23.9,74.9,23.9,106.4,0L528,256.3z M112,189.4c0-7.4,6-13.4,13.4-13.4h389.2
	c7.4,0,13.4,6,13.4,13.4c0,4.2-2,8.2-5.3,10.7L344.2,335.5c-14.3,10.8-34.1,10.8-48.4,0L117.3,200.1C114,197.6,112,193.6,112,189.4z
	"/>
</svg>
