<?xml version="1.0" encoding="utf-8"?>
<!-- Generator: Adobe Illustrator 28.3.0, SVG Export Plug-In . SVG Version: 6.00 Build 0)  -->
<svg version="1.1" id="Layer_1" xmlns="http://www.w3.org/2000/svg" xmlns:xlink="http://www.w3.org/1999/xlink" x="0px" y="0px"
	 viewBox="0 0 1551.3 768" style="enable-background:new 0 0 1551.3 768;" xml:space="preserve">
<style type="text/css">
	.st0{fill:#FFFFFF;}
</style>
<g>
	<path class="st0" d="M650.2,322c0.3,3.8,1.1,7.2,0.8,10.4c-1,10.9-2.2,21.8-3.6,32.7c-0.1,1-1.7,2.2-2.9,2.6
		c-2.1,0.8-4.4,0.8-6.5,1.5c-13,4.4-25,1.7-35.8-6s-22.8-10.1-35.5-8.8c-4.4,0.5-8.8,2.5-13,4.4c-3.8,1.8-7.3,4.3-11,6.5
		c-10.8,6.5-22,7-33.4,2.2c-6.2-2.6-12.1-5.9-18.4-8.4c-9.9-3.9-20.3-5.9-30.7-2.3c-4.5,1.5-9,3.9-12.7,6.9
		c-13.6,10.9-28.1,10.8-43.3,4.4c-6.3-2.7-12.5-5.6-18.9-8.1c-13-5-25.9-4.4-38.5,1.7c-3.9,1.9-8,3.5-11.8,5.7
		c-11.8,6.8-23.6,6.3-35.5,0.8c-3.8-1.7-7.5-3.5-11.1-5.4c-23.2-12-44.6-8.8-64.5,7.4c-2.5,2-4.9,4.1-8.2,6.9
		c-1.4-4.5-3.2-8.3-3.6-12.2c-0.9-10.9-1.3-21.9-1.6-32.9c0-1.3,1.2-2.8,2.3-3.9c18.8-18.6,41.7-21.1,66.4-16.8
		c8.5,1.5,17,2.8,25.6,3c10.5,0.2,19.9-4.4,28.9-9.4c4.8-2.7,9.8-4.1,15.1-5c12.4-2.1,24.9-4,37.3-6.5c4-0.8,8-2.6,11.7-4.6
		c6.4-3.6,12.5-7.8,18.8-11.5c11.1-6.6,22.4-6.7,33.4,0c8,4.9,15.6,10.4,23.2,15.8c12.4,8.9,25.9,15.3,41.5,15.4
		c11,0.1,22-0.1,32.9-1.6c12.2-1.7,23.3,0.4,34.1,5.6c6.8,3.2,13.7,6.1,20.6,9.1c12.8,5.5,26.1,4.7,39.4,2.6
		C644.1,323.8,646.7,322.9,650.2,322z"/>
	<path class="st0" d="M1037.7,654.6c0-38.7,0-77.2,0-116.1c1.6,0.1,3.7,0.3,5.7,0.3c9.7-0.1,19.5-0.6,29.2-0.4
		c7.9,0.2,16.1,0.2,23.8,1.8c11.7,2.5,17.9,9.7,19.1,19.8c1.4,12.2-3.3,21.8-13.9,27.5c-3.9,2.1-8.1,3.4-12.4,5.2
		c3.9,1.1,7.7,1.9,11.2,3.3c10.3,4.2,19.8,13.7,18.1,29.9c-1.4,13.1-10.5,24.2-23.8,27.1c-5.1,1.1-10.4,1.6-15.6,1.7
		c-13.5,0.2-27,0-40.5-0.1C1038.3,654.7,1037.8,654.6,1037.7,654.6z M1063.8,599.2c-0.1,1.3-0.3,2.2-0.3,3.1
		c0,11.7-0.1,23.4,0.1,35.1c0.2,9.9-1.6,8.4,8.8,8.6c7.9,0.1,13.7-3.6,16.9-10.7c4-8.6,3.8-17.5,0.1-26.1c-2.6-5.9-7.5-9.3-13.9-10
		C1071.8,598.9,1067.9,599.2,1063.8,599.2z M1063.8,568.8c-0.1,0-0.2,0-0.3,0c0,6-0.1,12,0.1,17.9c0,0.9,1.2,2.5,2.1,2.6
		c13.2,2,23.5-5.2,25-18c1.5-12.7-3.1-21.8-14.8-23.6c-2.9-0.4-6-0.1-8.9-0.1c-2.1,0-3.1,0.9-3.1,3.2
		C1063.9,556.9,1063.8,562.9,1063.8,568.8z"/>
	<path class="st0" d="M1440.9,654.7c-10,0-19.3,0.1-28.5-0.1c-1.3,0-2.9-1.7-3.6-3c-9.1-15.8-18.1-31.6-27.1-47.4
		c-0.6-1.1-1.5-2-2.9-3.8c0,18.6,0,36.1,0,54c-8.6,0-17.6,0-26.2,0c0-38.6,0-77,0-115.9c1.8,0.1,4.1,0.4,6.4,0.3
		c11.9-0.2,23.7-0.5,35.6-0.6c4.3,0,8.8,0.3,13,1c13,2.2,21.5,10.5,23.2,22c2.1,14.2-3.5,26-15.3,32.1c-3.2,1.7-6.6,2.8-10.4,4.5
		C1415.7,617.4,1428.5,635.4,1440.9,654.7z M1378.3,547c0,15.8,0,30.5,0.1,45.2c0,0.8,1.1,2,1.8,2.2c7.8,2,19.1-3.2,22.5-10.6
		c3.9-8.6,3.7-17.5,1-26.3c-1.3-4.3-4.6-7.4-8.9-8.3C1389.8,548.1,1384.5,547.8,1378.3,547z"/>
	<path class="st0" d="M229.6,387.6c10.8-13.1,22.6-21.7,39.3-21c7.9,0.4,15.2,2.5,22.3,5.7c6.8,3.1,13.8,5.9,20.8,8.4
		c8.7,3.1,17.2,1.9,25.4-2c3.2-1.5,6.4-2.8,9.5-4.3c15.4-7.3,30.6-6.4,45.9,0.8c7.4,3.5,15.2,6.3,23.1,8.4
		c9.3,2.4,18.3-0.3,26.7-4.7c1-0.5,2-1,3-1.6c17.4-11.1,35.2-9.7,53.3-1.9c6.5,2.8,13.1,5.5,19.9,7.7c9.2,3,17.8,1.1,25.5-4.6
		c3.9-2.9,7.8-5.9,11.5-8.9c6.9-5.6,14.2-6.8,22.7-3.4c11.5,4.7,23.3,8.8,35.1,13c10.3,3.6,20.7,4.9,30.9-0.8
		c-9.7,8.8-19.5,17.4-32.5,20.8c-8.7,2.3-16.8-0.1-24.5-4.3c-5-2.8-10-5.7-15.1-8.4c-12.4-6.6-24.7-6-36.8,1.1
		c-3.5,2-6.8,4.1-10.3,6.1c-12.6,7.4-25.4,7.4-38.2,0.8c-5.4-2.8-10.7-5.9-16.2-8.7c-13-6.8-26.1-6.7-39.2-0.1
		c-5.6,2.8-11,6-16.6,8.5c-10.8,4.9-21.8,4.8-32.7,0c-5.7-2.5-11.2-5.4-16.9-8.1c-12.8-6.1-25.4-5.4-37.5,1.9
		c-3.8,2.2-7.4,4.6-11.3,6.6c-11.4,6.1-22.7,6.2-33.8-0.6c-3.9-2.4-7.9-4.9-11.7-7.5c-9.9-6.6-20.2-8-31.3-3.3
		C237,384.8,233.8,385.9,229.6,387.6z"/>
	<path class="st0" d="M632.8,414c-9,8.8-19.7,14-32.2,16c-11.5,1.8-22,0.1-32-6c-8.1-5-16.8-8.9-26.5-7.3c-6.1,1-12.1,2.9-17.8,5.3
		c-9.1,3.8-18.2,7.5-28.2,5.7c-6.6-1.2-12.9-3.7-19.3-5.8c-4-1.3-7.8-3.3-11.9-4.6c-10.8-3.6-21.4-2.9-31.8,1.8
		c-5.4,2.4-10.6,5.1-16,7.3c-11.4,4.8-22.7,3.9-33.7-1.6c-4-2-8-4.2-12-6.2c-12.1-6.2-24.4-6.5-36.8-0.7c-4.2,2-8.3,4.1-12.4,6.2
		c-13.1,6.9-26.3,6.9-39.6,0.6c-8.8-4.2-17.6-8.4-27.7-8.6c-5.1-0.1-10.2,0-15.5,0c0.1-0.6,0-1.1,0.2-1.3
		c13.2-12.2,30.4-19.7,49-8.9c5.2,3,10.5,5.7,15.9,8.3c12.4,6,24.6,5.4,36.5-1.5c3.9-2.3,7.6-4.7,11.5-7.1
		c12.1-7.4,24.6-8.3,37.4-1.8c4.8,2.4,9.5,5.1,14.2,7.6c13.2,7.1,26.2,7.2,39.1-0.7c3.8-2.4,7.6-4.8,11.6-6.9
		c10.6-5.7,21.5-6,32.4-0.8c5.3,2.5,10.4,5.4,15.6,8.1c13,6.6,25.3,5.9,37.2-3.1c5-3.8,10.6-7.2,16.5-9.2c7.1-2.4,14.3,0.4,21,3.4
		c5.1,2.3,10.1,4.9,15.2,7.4C605.8,415.9,618.8,418.5,632.8,414z"/>
	<path class="st0" d="M614,445.9c-6.7,7.7-14.3,12.5-23.3,15.5c-10.9,3.7-21.3,3.3-31.4-2.7c-2.6-1.5-5.3-2.8-8-4.1
		c-11.3-5.9-22.5-5.7-33.7,0.4c-3.3,1.8-6.6,3.6-10,5.2c-9.5,4.5-19.1,4.5-28.6,0.2c-5.1-2.3-10-5.1-15.1-7.5
		c-11.4-5.6-22.7-5-33.7,1.1c-3.6,2-7.2,4.1-10.9,5.9c-9.8,4.9-19.8,4.9-29.7,0.5c-5-2.2-9.9-4.8-14.8-7.2
		c-12.3-6-24.3-5.4-36.1,1.4c-2.6,1.5-5.2,2.9-7.9,4.3c-10.7,5.8-21.6,5.8-32.9,1.4c-7.5-3-15-6.2-22.9-8c-6.7-1.5-13.8-1-21.5-1.4
		c3.6-3,6.6-6.2,10.2-8.5c8.9-5.6,18.4-10.1,29.2-7.6c5.1,1.2,9.9,4,14.7,6.3c3,1.5,5.9,3.3,8.8,5c12.2,6.8,24.1,6.1,35.8-1.1
		c3.3-2,6.6-4.1,10-6c9.9-5.4,20-5.7,30.2-0.8c5.8,2.7,11.3,5.9,17.1,8.5c10.3,4.7,20.4,3.8,30-2.2c2.2-1.4,4.4-2.8,6.5-4.4
		c12.1-8.7,24.4-8.9,37.2-1.6c5.2,3,10.4,6,15.9,8.4c10.1,4.5,19.9,3.7,29-3.1c2.2-1.6,4.5-3.2,6.6-4.9c7-5.7,14.9-6.7,23.3-3.8
		c6.9,2.5,13.7,5.5,20.5,8.1c10,3.8,20.5,4.2,31,2.9C610.9,446.1,612.1,446,614,445.9z"/>
	<path class="st0" d="M455.2,654.5c-2.3-7.5-4.6-14.7-6.8-22c-0.7-2.5-1.9-3.7-4.7-3.7c-7,0.1-14,0-21-0.1c-2.3,0-3.2,1-3.9,3.1
		c-2.3,7.5-4.7,15-7.2,22.7c-17.5,0-35.2,0-52.9,0c0-28.5,0-57,0-85.8c6,0,11.9,0,17.8,0c0,25.5,0,51.1,0,77.4
		c8.7-0.5,17.1-1,25.8-1.4c0.1,1.1,0.3,2.2,0.5,4.4c0.9-1.9,1.5-3,1.9-4c9.3-24.6,18.6-49.2,28-73.8c0.6-1.5,0.5-4,3.1-3.2
		c2.7,0.8,6.3-2.1,8.1,3.2c9.4,26.5,19.2,52.7,28.9,79.1c0.5,1.4,0.9,2.8,1.4,4.3C467.9,654.5,461.6,654.5,455.2,654.5z
		 M422.7,621.1c7.4,0,14.3,0,21.8,0c-3.5-9.9-6.8-19.4-10.1-28.8c-0.3,0-0.6,0-1,0C429.9,601.8,426.4,611.2,422.7,621.1z"/>
	<path class="st0" d="M1444.3,538.3c9.9,0,19.1-0.1,28.3,0.1c1,0,2.3,1.6,2.8,2.7c6.9,13.8,13.6,27.8,20.5,41.6
		c1,2.1,2.3,4.1,3.8,6.8c1.2-1.7,2.2-2.7,2.8-4c7.3-14.6,14.6-29.2,21.7-43.9c1.2-2.5,2.4-3.4,5.3-3c3.6,0.5,7.4,0.1,11.6,0.1
		c-3.5,6.3-7,12.2-10.2,18.2c-7.9,14.6-15.7,29.2-23.5,43.8c-0.8,1.6-1.3,3.5-1.3,5.3c0.3,15.7,0.7,31.4,1.1,47.1
		c0,0.4-0.1,0.7-0.1,1.3c-9.2,0-18.4,0-28,0c0-1.2,0-2.4,0-3.5c0.5-13.1,1.2-26.1,1.5-39.2c0.1-3-0.8-6.2-2.2-8.9
		c-10.8-20.7-21.8-41.2-32.7-61.8C1445.2,540.4,1444.9,539.8,1444.3,538.3z"/>
	<path class="st0" d="M926.7,643.3c13.1-0.7,25.7-1.4,38.4-2.1c0,4.3,0,8.7,0,13.3c-21.7,0-43.3,0-64.5,0c0-38.7,0-77.2,0-115.9
		c8.4,0,17.3,0,26.1,0C926.7,573.2,926.7,607.7,926.7,643.3z"/>
	<path class="st0" d="M213,654.5c-6.3,0-12.2,0-17.9,0c0-28.6,0-57.1,0-85.8c5.7,0,11.6,0,17.7,0c0,3.8,0,7.6,0,11.4
		c-0.1,6.6-0.2,13.2-0.4,19.8c-0.1,2.4,0.7,3.3,3.2,3.3c9.9-0.1,19.7-0.1,29.6,0c2.7,0,3.3-1,3.3-3.5c-0.1-10.2-0.1-20.5-0.1-31
		c5.5,0,11.5,0,17.4,0c0,28.5,0,57,0,85.7c-6,0-12.1,0-18.6,0c0.5-13.7,0.9-27.3,1.4-41.4c-1.8-0.1-3.2-0.3-4.5-0.3
		c-9.1,0-18.2,0.1-27.4-0.1c-3.4-0.1-4.6,0.8-4.5,4.4c0.4,11,0.5,22,0.7,32.9C213,651.4,213,652.8,213,654.5z"/>
	<path class="st0" d="M984.1,538.7c8.8,0,17.5,0,26.2,0c0,38.5,0,77,0,115.7c-8.6,0-17.5,0-26.2,0
		C984.1,615.8,984.1,577.3,984.1,538.7z"/>
	<path class="st0" d="M278,568.5c5.8,0,11.8,0,18,0c-0.3,4.5-0.8,9.1-0.8,13.6c0,15,0.1,29.9,0.2,44.9c0,1.7,0.5,3.5,0.9,5.2
		c1.9,8.8,8.2,15,16.2,15.9c10.2,1.2,17.9-2.5,21.6-11.6c2-4.8,3.2-10.3,3.4-15.5c0.3-16.3-0.1-32.7-0.2-49c0-1,0-2,0-3.1
		c3.6,0,7.1,0,10.5,0c0,3.1,0.1,6.2,0,9.2c-0.4,15.6-0.8,31.2-1.4,46.8c-0.4,11-4.2,20.4-14,26.7c-11.8,7.5-33.5,6.5-44.3-2.2
		c-6.2-5-9.4-11.8-9.6-19.6c-0.5-20.1-0.6-40.2-0.9-60.2C277.6,569.2,277.8,569,278,568.5z"/>
	<path class="st0" d="M215.6,294.3c-1.5-8.6,1-16.4,2.2-24.2c0.2-1.1,1.9-2.3,3.2-2.8c11.3-3.7,22.9-5.2,34.6-2.2
		c6.9,1.8,13.5,4.4,20.2,6.9c19.3,7.5,39,8.6,59.3,5.8c9.5-1.3,19.1-2,28.7,0.2c0.9,0.2,1.7,0.4,2.5,0.6c0.3,0.1,0.6,0.4,1.2,0.7
		c-0.2,1.7-0.5,3.5-0.8,5.6c-4.5-0.3-8.7-0.7-12.9-0.9c-12.1-0.7-23.6,1.1-34.3,7.1c-10,5.5-20.6,5.2-31.3,2.2
		c-5.2-1.4-10.3-3-15.4-4.7c-18.4-6.1-36.2-4-53.5,4.1C218.2,293.1,217.1,293.6,215.6,294.3z"/>
	<path class="st0" d="M642.8,269c2,7,4,13.6,5.6,20.4c0.2,0.7-1.4,2.4-2.5,2.8c-12.1,4.7-24.6,5.5-37.2,3.3
		c-12.9-2.2-25.7-4.9-38.5-7.9c-9.7-2.2-19.1-0.1-28.6,1.2c-12.2,1.6-24.4,2-36.6,0.5c-1.7-0.2-3.5,0-3.5-2.7c0-2.5,1.4-2.8,3.3-3
		c18.6-2.1,37-5.6,55-11c7.6-2.3,15.2-0.7,22.7,0.5C603.9,276.6,621.6,276.7,642.8,269z"/>
	<path class="st0" d="M698.9,654.4c-3.5,0-6.8,0-10.6,0c3.3-8.5,6.7-16.7,9.8-24.9c7.3-19.4,14.5-38.8,21.8-58.1
		c0.6-1.6,0.5-4.2,3.4-3.4c2.8,0.7,6.2-1.9,8.1,3.3c9.5,26.8,19.5,53.4,29.2,80.1c0.3,0.9,0.6,1.8,1.1,3.1c-6.6,0-12.9,0-19.4,0
		c-2.2-7-4.5-14.1-6.5-21.3c-0.9-3.2-2.4-4.5-5.7-4.4c-6.5,0.1-13,0.1-19.5-0.1c-2.7-0.1-4,0.9-4.8,3.5
		C703.7,639.5,701.2,646.9,698.9,654.4z M721.6,592.7c-0.4,0-0.8-0.1-1.2-0.1c-3.5,9.5-7,18.9-10.5,28.6c7.6,0,14.4,0,21.6,0
		c-1.7-5.2-3.3-9.9-4.9-14.5C725,602,723.3,597.4,721.6,592.7z"/>
	<path class="st0" d="M374.5,257.4c-1.4,3.5-3.3,3.9-5.9,2.4c-13.5-7.9-28.1-10.4-43.5-9.7c-12.3,0.6-23.3-3.2-32-12
		c-12-12.2-26.9-17-43.4-18.6c-2.8-0.3-5.7-0.5-9.4-0.8c4.1-6.8,7.6-13.2,11.7-19.1c1.1-1.6,4.3-2.6,6.4-2.5
		c14.5,0.8,26.6,6.8,36.1,18c2.7,3.2,5.9,6.1,8.5,9.5c5.4,6.9,12.7,10.2,21,11.7c4.4,0.8,8.8,1.6,13.3,2.3
		C351.9,240.7,363.6,248.2,374.5,257.4z"/>
	<path class="st0" d="M187.2,640c0.4,9-1.4,12-9.1,14.2c-13.3,3.8-26.5,3.6-38.9-3c-13.4-7.2-19.4-19.3-20.2-34
		c-0.8-15.5,2.6-29.8,15.2-40.4c13.6-11.4,36.7-12.9,52.4-4.9c0.8,0.4,1.6,1.7,1.5,2.5c-0.6,3.7-1.4,7.3-2.2,10.9
		c-0.6,0.4-1.2,0.9-1.8,1.3c-0.6-1.2-0.9-2.7-1.7-3.7c-10.2-11.8-27.3-11.3-36.5,1.3c-7.9,10.8-8.9,23.3-7.7,36.1
		c0.3,3.2,1.1,6.4,2.1,9.5c6.2,19.1,25.5,25.5,42,13.9C183.9,642.5,185.5,641.3,187.2,640z"/>
	<path class="st0" d="M490.2,568.5c6.2,0,12.1-0.1,17.9,0.1c0.9,0,2.2,1.6,2.6,2.7c6.3,18.7,12.4,37.4,18.6,56.1
		c0.3,1,0.8,2,2.3,3.3c7.2-20.6,14.3-41.2,21.6-62c2.8,0,5.8,0,9.3,0c-10.6,28.7-21.2,57.1-31.8,85.7c-3,0-6.3,0-9.6,0
		C510.8,625.9,500.5,597.3,490.2,568.5z"/>
	<path class="st0" d="M596.8,635.7c0.5,1.1,0.9,2.2,1.4,3.3c3.4,8,11.2,11.9,19.6,9.7c4.9-1.3,8.1-4.4,9.1-9.4
		c1.1-5.5-0.4-10.4-5-13.6c-6.1-4.2-12.6-7.6-18.7-11.8c-9.6-6.5-13.1-17.9-9.5-29.4c3.1-10,12.8-17.1,23.7-17.4
		c6.2-0.2,12.2,0.7,17.6,4c1.7,1,2.5,2,1.7,4.2c-1.2,3.2-2,6.5-3.3,10.8c-1.7-2.7-2.8-4.7-4-6.4c-5.9-7.8-18.1-7-22.2,1.4
		c-2.4,4.9-1.6,10.1,2.9,13.8c3.5,2.9,7.6,5.2,11.5,7.7c2.4,1.5,5,2.9,7.4,4.4c10,6.5,14.2,16,11.9,26.8
		c-2.7,12.5-10.8,20.5-22.7,22.3c-7.8,1.2-15.4,0.6-22.7-2.7c-2.4-1.1-3.5-2.3-2.6-5.2c1.2-4.1,2-8.3,2.9-12.5
		C596,635.7,596.4,635.7,596.8,635.7z"/>
	<path class="st0" d="M621.5,219c-9.5,8.7-20.4,13.1-32.6,14.7c-5.7,0.7-11.4,1.2-17.2,1.5c-8.7,0.5-16.6,2.9-24.1,7.3
		c-10.5,6.2-21.2,12.3-32.1,17.8c-5.6,2.8-11.9,4.2-17.8,6.2c-2.3-3.3-2.5-5.1,1.2-6.7c14.1-6.1,26.9-14.2,38.3-24.5
		c2.6-2.3,5.5-4.4,8.1-6.6c7.2-6.2,15.4-9.9,24.9-11c13.6-1.5,26.1-6.6,37.7-13.8c0.8-0.5,1.7-1,2.9-1.6
		C614.4,207.8,617.8,213.2,621.5,219z"/>
	<path class="st0" d="M660,577.2c-6.8,0.5-13.5,1-20.5,1.5c0-3.3,0-6.6,0-10.2c19.4,0,38.9,0,58.5,0c0,3.3,0,6.5,0,10.2
		c-3.9-0.4-7.7-1-11.5-1.2c-8.8-0.5-8.9-0.5-8.9,8.2c0,21.7,0.1,43.4,0.1,65.1c0,1.1,0,2.2,0,3.5c-6.2,0-12.1,0-17.9,0
		C660,629,660,603.4,660,577.2z"/>
	<path class="st0" d="M385,241.1c-8-13.2-20.8-20.3-34.3-26.1c-16.1-6.9-28.6-17.9-38.9-31.9c-5.5-7.5-10.6-15.5-18.4-21
		c-0.5-0.4-0.7-2.1-0.3-2.8c3.2-5.6,7.7-9.9,14-11.6c1.4-0.4,3.7,0.5,4.9,1.6c8.3,7.2,13.2,16.8,18.1,26.3
		c4.2,8.1,7.4,16.8,15.1,22.4c5.3,3.9,10.9,7.6,16.3,11.2c4.5,3.1,9.3,5.9,13.7,9.1c5.9,4.4,10,10.3,12.9,17.1
		C389.5,238.6,389.2,240.4,385,241.1z"/>
	<path class="st0" d="M553.2,146.3c6.3,4.7,12.3,9.1,19.2,14.2c-2.8,3-4.9,6.3-7.9,8.3c-4.9,3.3-10.3,6.1-15.7,8.6
		c-10.8,4.9-19.2,12.1-25,22.6c-6.5,11.8-13.6,23.3-23.4,32.8c-3.4,3.3-7.2,6.2-11.1,8.8c-5.4,3.5-5.5,3.2-9.1-0.8
		c4.9-5.4,9.8-10.7,14.7-16c5.5-5.9,9.8-12.6,12-20.4c4-14.3,11.5-26,23.7-34.8C539.3,163.2,547.1,155.8,553.2,146.3z"/>
	<path class="st0" d="M440.8,558.4c-3.8,0-7.7,0-11.3,0c0-6.8,0.1-13.4-0.1-20.1c-0.1-2.2-0.5-4.5-1.4-6.4
		c-4.4-9.3-9.1-18.5-14-28.5c-0.4,1.7-0.6,2.7-0.8,3.8c-4.4-0.3-8.7-0.6-13.5-0.9c0,17.7,0,34.8,0,52.2c-4.2,0-7.9,0-11.9,0
		c0-17.1,0-34.2,0-52.1c-4.7,0.3-9.2,0.6-13.9,0.8c0-2.2,0-4.3,0-6.7c1.4,0,2.8,0,4.1,0c15.2,0,30.5,0.1,45.7,0
		c2.2,0,3.1,0.9,3.8,2.6c2.8,6.4,5.6,12.8,8.5,19.2c0.5,1.2,1.2,2.3,2.2,4.3c1.6-3.1,2.9-5.3,3.9-7.7c2-4.3,3.9-8.7,5.7-13
		c2.2-5.4,2.2-5.4,8.9-5.1c-0.8,1.7-1.4,3.2-2.2,4.7c-3.7,7.3-7.4,14.7-11.2,22c-1.9,3.6-2.7,7.4-2.6,11.5
		C441,545.2,440.8,551.6,440.8,558.4z"/>
	<path class="st0" d="M355.9,123.3c4.8-1.6,10.3-3.4,15.8-5.2c2.3-0.7,3.7,0.2,4.9,2.2c3,5.2,3.9,11,4.1,16.9
		c0.1,4.7,0,9.5,0.2,14.2c0.5,12.7,4.7,23.9,13.3,33.4c9.9,10.9,16,23.4,17.4,38.1c0.3,2.7-0.1,4.4-3.7,4c-0.5-1.6-0.9-3.2-1.4-4.8
		c-2.8-10.1-8.1-18.5-16.2-25.5c-5.5-4.8-10.5-10.3-15-16.1c-5.3-6.7-8.2-14.7-10.2-23.1C362.5,146.5,359.2,135.5,355.9,123.3z"/>
	<path class="st0" d="M487.3,117.4c5.7,1.5,11.6,3,17.4,4.8c0.6,0.2,1.4,2.4,1,3.2c-1.6,4.2-2.7,8.9-5.5,12.1
		c-12,13.8-16.7,30.3-19.7,47.7c-2.5,13.9-6.6,27.4-13,40.1c-1.8,3.6-3.8,4.1-7.2,1.9c1.2-3.8,2.5-7.7,3.7-11.6
		c2.7-8.4,4.6-16.9,4.2-25.7c-1-17.2,2.5-33.4,10-48.9C481.7,133.6,484.1,125.6,487.3,117.4z"/>
	<path class="st0" d="M476,528.5c0-10,4.2-20.1,15.4-25.8c11-5.6,22.3-5.4,32.7,1.5c10.4,7,14.3,21.6,10.1,35.3
		c-3.7,12.1-14.2,20.2-26.9,20.7C488.2,561,476.4,549.8,476,528.5z M487.9,531c1.1,4.9,1.8,10,3.5,14.8c2,5.7,6.3,9.2,12.6,9.7
		c6.2,0.5,11.1-2.3,14-7.5c6.5-11.7,7-24,1.1-35.9c-5.4-10.8-18.3-11.4-25.4-1.6C489.4,516.6,488.9,523.7,487.9,531z"/>
	<path class="st0" d="M566.2,568.6c6,0,11.7,0,17.3,0c0,28.5,0,57.1,0,85.9c-5.5,0-11.5,0-17.3,0C566.2,626,566.2,597.4,566.2,568.6
		z"/>
	<path class="st0" d="M439.9,222.3c-2,0-3.5,0-5.4,0c0-6.1,0-12,0-18c-0.1-6.8-2.3-12.9-5.8-18.7c-4.5-7.4-9.2-14.8-9.3-23.8
		c0-8.1,0.9-16.1,1.6-24.2c0.7-7.8,1.7-15.6,2.2-23.4c0.2-2.8,1.1-3.7,3.8-3.6c4.4,0.2,8.7,0.2,13.1,0c2.7-0.1,4.2,0.8,3.7,3.6
		c-0.8,4.9-0.8,10.2-2.9,14.5c-8,16.6-7.8,33.6-4.3,51.2c2.5,12.6,4.3,25.3,3.6,38.3C440.1,219.5,440,220.7,439.9,222.3z"/>
	<path class="st0" d="M819.7,517.9c2.7,0,5.1,0,7.6,0c0,51,0,101.7,0,152.8c-2.5,0-4.9,0-7.6,0C819.7,619.8,819.7,569,819.7,517.9z"
		/>
	<path class="st0" d="M349.1,549.2c0.1,6.3-0.6,7.8-6.1,9.1c-12.3,3-24,2.5-33.1-7.8c-9.4-10.6-8.9-30.8,0.6-41.6
		c9.1-10.3,28.1-13,39.6-5.3c-0.6,2.5-1.1,5.2-1.7,7.8c-0.4,0.3-0.8,0.5-1.1,0.8c-0.5-0.9-0.9-2-1.6-2.8c-7.6-7.8-19.3-6.9-24.9,2.5
		c-6.4,10.7-6.8,22.1-1.5,33.3c4.6,9.8,15.6,12.6,25.1,7C346,551.3,347.5,550.2,349.1,549.2z"/>
	<path class="st0" d="M552.5,558.3c-4.4,0-8,0-11.7,0c0-19.3,0-38.4,0-57.7c9.8,0,19.4,0,29.2,0c0,2.1,0,4.1,0,6.5
		c-4.7-0.3-9.2-0.4-13.8-0.8c-2.7-0.2-3.9,0.6-3.8,3.5c0.2,4,0.1,8-0.1,12c-0.2,3,1.1,3.6,3.8,3.4c4.4-0.4,8.9-0.5,13.6-0.7
		c0,2.3,0,4.2,0,6.5c-5.6,0-11.1,0-17.1,0C552.5,540.2,552.5,549.3,552.5,558.3z"/>
	<path class="st0" d="M368.1,558.3c-3.8,0-7.7,0-11.6,0c0-19.2,0-38.3,0-57.6c4,0,7.8,0,11.6,0C368.1,519.9,368.1,539,368.1,558.3z"
		/>
	<path class="st0" d="M1186.8,598.3c12.2,19.2,24,37.7,36.2,56.8c-9.9,0-19.2,0.1-28.5-0.1c-1.1,0-2.4-1.5-3.1-2.6
		c-9.1-15.8-18.1-31.6-27.1-47.5c-0.7-1.2-1.6-2.2-2.4-3.3c-0.5,0.1-1,0.2-1.5,0.4c0.4,17.6,0.8,35.1,1.2,52.9c-8.9,0-17.7,0-26.5,0
		c0-38.5,0-77.1,0-116c1.9,0.1,4.2,0.3,6.6,0.3c11.9-0.2,23.7-0.5,35.6-0.6c4.3,0,8.8,0.3,13,1c16.4,2.9,25.3,15.3,23.1,31.9
		c-1.6,12.5-9,20.1-20.4,24.5C1191.3,596.7,1189.6,597.3,1186.8,598.3z M1160.6,547.4c0,15.7,0,30.3,0.1,45c0,0.8,1,2.1,1.7,2.3
		c7.7,2.2,19.5-3.2,22.8-10.7c3.8-8.5,3.6-17.3,1-26c-1.4-4.8-5-7.8-9.9-8.8C1171.6,548.4,1166.7,548.1,1160.6,547.4z"/>
	<path class="st0" d="M1338.7,655.1c-9.3,0-18.2,0.1-27-0.1c-1,0-2.3-1.6-2.8-2.7c-3.4-9.4-6.6-18.8-9.7-28.3
		c-0.8-2.5-2.1-3.3-4.6-3.3c-11,0.1-22,0.1-32.9,0c-2.8,0-4,1.1-4.8,3.6c-3,9.1-6.2,18.2-9,27.3c-0.8,2.7-2,3.8-4.9,3.5
		c-3.8-0.3-7.7-0.1-12.1-0.1c0.4-1.2,0.7-2.2,1.1-3.1c15.2-36.9,30.4-73.8,45.5-110.7c0.9-2.2,1.7-3.6,4.5-2.9c2,0.5,4.3,0.5,6.3,0
		c2.9-0.7,3.8,0.5,4.8,3c11.9,30.7,23.9,61.3,35.9,91.9C1331.9,640.4,1335.2,647.4,1338.7,655.1z M1294.2,610.8
		c-5-13.5-9.9-26.5-14.8-39.6c-0.4,0-0.9,0-1.3,0c-5.2,13.1-10.3,26.2-15.6,39.6C1273.4,610.8,1283.5,610.8,1294.2,610.8z"/>
	<path class="st0" d="M1264.1,265.9c5.3-13.4,10.4-26.5,15.6-39.6"/>
</g>
</svg>
