<?xml version="1.0" encoding="utf-8"?>
<!-- Generator: Adobe Illustrator 28.3.0, SVG Export Plug-In . SVG Version: 6.00 Build 0)  -->
<svg version="1.1" id="Layer_1" xmlns="http://www.w3.org/2000/svg" xmlns:xlink="http://www.w3.org/1999/xlink" x="0px" y="0px"
	 viewBox="0 0 640 640" style="enable-background:new 0 0 640 640;" xml:space="preserve">
<style type="text/css">
	.st0{fill:#19457F;}
</style>
<path class="st0" d="M320,205.3v309.3l0.5-0.2c54.6-22.7,113.2-34.4,172.3-34.4H512V160h-19.2c-42.2,0-84.1,8.4-123.1,24.6
	C352.9,191.6,336.3,198.5,320,205.3z M294.9,125.5L320,136l25.1-10.5C391.9,106,442.1,96,492.8,96H528c26.5,0,48,21.5,48,48v352
	c0,26.5-21.5,48-48,48h-35.2c-50.7,0-100.9,10-147.7,29.5l-12.8,5.3c-7.9,3.3-16.7,3.3-24.6,0l-12.8-5.3
	c-46.8-19.5-97-29.5-147.7-29.5H112c-26.5,0-48-21.5-48-48V144c0-26.5,21.5-48,48-48h35.2C197.9,96,248.1,106,294.9,125.5z"/>
</svg>
