<?xml version="1.0" encoding="utf-8"?>
<!-- Generator: Adobe Illustrator 28.3.0, SVG Export Plug-In . SVG Version: 6.00 Build 0)  -->
<svg version="1.1" id="Layer_1" xmlns="http://www.w3.org/2000/svg" xmlns:xlink="http://www.w3.org/1999/xlink" x="0px" y="0px"
	 viewBox="0 0 640 640" style="enable-background:new 0 0 640 640;" xml:space="preserve">
<style type="text/css">
	.st0{fill:#19457F;}
</style>
<path class="st0" d="M267.7,576.9L267.7,576.9l-37.8,26.7c-7.3,5.2-16.9,5.8-24.9,1.7c-8-4.1-13-12.3-13-21.3v-72h-32
	c-53,0-96-43-96-96V192c0-53,43-96,96-96h320c53,0,96,43,96,96v224c0,53-43,96-96,96H359.6L267.7,576.9z M332,472.8
	c8.1-5.7,17.8-8.8,27.7-8.8H480c26.5,0,48-21.5,48-48V192c0-26.5-21.5-48-48-48H160c-26.5,0-48,21.5-48,48v224c0,26.5,21.5,48,48,48
	h56c10.4,0,19.3,6.6,22.6,15.9c0.9,2.5,1.4,5.2,1.4,8.1v49.7c32.7-23.1,63.3-44.7,91.9-64.9H332z"/>
</svg>
