<?xml version="1.0" encoding="utf-8"?>
<!-- Generator: Adobe Illustrator 28.3.0, SVG Export Plug-In . SVG Version: 6.00 Build 0)  -->
<svg version="1.1" id="Layer_1" xmlns="http://www.w3.org/2000/svg" xmlns:xlink="http://www.w3.org/1999/xlink" x="0px" y="0px"
	 viewBox="0 0 640 640" style="enable-background:new 0 0 640 640;" xml:space="preserve">
<style type="text/css">
	.st0{fill:#19457F;}
</style>
<path class="st0" d="M128,128c-35.3,0-64,28.7-64,64v256c0,35.3,28.7,64,64,64h256c35.3,0,64-28.7,64-64V192c0-35.3-28.7-64-64-64
	H128z M496,400l73.5,58.8c4.2,3.4,9.4,5.2,14.8,5.2c13.1,0,23.7-10.6,23.7-23.7V199.7c0-13.1-10.6-23.7-23.7-23.7
	c-5.4,0-10.6,1.8-14.8,5.2L496,240V400z"/>
</svg>
